<svg width="19" height="18" viewBox="0 0 19 18" fill="none" xmlns="http://www.w3.org/2000/svg">
<path d="M9.75 0L7.85 5.8C7.75271 6.10122 7.58531 6.37504 7.36157 6.59895C7.13783 6.82287 6.86414 6.99048 6.563 7.088L0.75 9L6.55 10.9C6.85122 10.9973 7.12504 11.1647 7.34895 11.3884C7.57287 11.6122 7.74048 11.8859 7.838 12.187L9.75 18L11.65 12.2C11.7473 11.8988 11.9147 11.625 12.1384 11.401C12.3622 11.1771 12.6359 11.0095 12.937 10.912L18.75 9L12.95 7.1C12.6488 7.00271 12.375 6.83531 12.151 6.61157C11.9271 6.38783 11.7595 6.11414 11.662 5.813L9.75 0Z" fill="#121619"/>
</svg>
