<svg width="32" height="32" viewBox="0 0 32 32" fill="none" xmlns="http://www.w3.org/2000/svg">
<path fill-rule="evenodd" clip-rule="evenodd" d="M22.7071 12.7963C22.7071 14.0523 23.039 14.7925 23.7695 15.6456C24.3231 16.2741 24.5 17.0808 24.5 17.956C24.5 18.8302 24.2128 19.6601 23.6373 20.3339C22.884 21.1417 21.8215 21.6573 20.7372 21.747C19.1659 21.8809 17.5937 21.9937 16.0005 21.9937C14.4063 21.9937 12.8351 21.9263 11.2638 21.747C10.1785 21.6573 9.11602 21.1417 8.36367 20.3339C7.78822 19.6601 7.5 18.8302 7.5 17.956C7.5 17.0808 7.6779 16.2741 8.23049 15.6456C8.98384 14.7925 9.29392 14.0523 9.29392 12.7963V12.3703C9.29392 10.6883 9.71333 9.58852 10.577 8.51186C11.8611 6.9417 13.9194 6 15.9558 6H16.0452C18.1254 6 20.2502 6.98702 21.5125 8.62466C22.3314 9.67916 22.7071 10.7327 22.7071 12.3703V12.7963ZM13.0737 24.0608C13.0737 23.5573 13.5358 23.3266 13.9632 23.2279C14.4631 23.1222 17.5093 23.1222 18.0092 23.2279C18.4366 23.3266 18.8987 23.5573 18.8987 24.0608C18.8738 24.5402 18.5926 24.9653 18.204 25.2352C17.7001 25.628 17.1088 25.8767 16.4906 25.9664C16.1487 26.0107 15.8128 26.0117 15.4828 25.9664C14.8636 25.8767 14.2723 25.628 13.7694 25.2342C13.3798 24.9653 13.0985 24.5402 13.0737 24.0608Z" fill="#121619"/>
</svg>
