<svg width="16" height="16" viewBox="0 0 16 16" fill="none" xmlns="http://www.w3.org/2000/svg">
<path fill-rule="evenodd" clip-rule="evenodd" d="M10.7723 5.48865C10.7723 7.05508 9.52348 8.31115 7.96608 8.31115C6.4087 8.31115 5.15991 7.05508 5.15991 5.48865C5.15991 3.92159 6.4087 2.66675 7.96608 2.66675C9.52348 2.66675 10.7723 3.92159 10.7723 5.48865ZM7.96608 13.3334C5.67865 13.3334 3.72547 12.9707 3.72547 11.5202C3.72547 10.069 5.66611 9.69315 7.96608 9.69315C10.2535 9.69315 12.2067 10.0558 12.2067 11.507C12.2067 12.9575 10.2661 13.3334 7.96608 13.3334ZM11.9715 5.53956C11.9715 6.3381 11.7333 7.08201 11.3154 7.70041C11.2725 7.76408 11.3107 7.84995 11.3865 7.86315C11.4909 7.88115 11.599 7.89135 11.7088 7.89435C12.8042 7.92315 13.7873 7.21408 14.0589 6.14657C14.4613 4.5609 13.2799 3.13735 11.7757 3.13735C11.6121 3.13735 11.4557 3.15475 11.3035 3.18597C11.2826 3.19078 11.2605 3.20039 11.2486 3.219C11.2343 3.24181 11.245 3.27243 11.2593 3.29225C11.7112 3.92928 11.9715 4.7062 11.9715 5.53956ZM13.7855 9.00848C14.5216 9.15315 15.0057 9.44855 15.2063 9.87781C15.3758 10.2303 15.3758 10.6391 15.2063 10.991C14.8994 11.6568 13.9103 11.8706 13.5259 11.9258C13.4465 11.9378 13.3826 11.8688 13.391 11.7889C13.5873 9.94388 12.0252 9.06908 11.6211 8.86795C11.6037 8.85895 11.6002 8.84515 11.6019 8.83675C11.6031 8.83075 11.6103 8.82115 11.6235 8.81935C12.4979 8.80315 13.4381 8.92321 13.7855 9.00848ZM4.29149 7.89428C4.40132 7.89128 4.50877 7.88168 4.61383 7.86308C4.68964 7.84988 4.72785 7.76401 4.68487 7.70035C4.26701 7.08195 4.02883 6.33804 4.02883 5.5395C4.02883 4.70614 4.2891 3.92922 4.74098 3.29219C4.75531 3.27237 4.76545 3.24175 4.75172 3.21894C4.73979 3.20093 4.7171 3.19072 4.69681 3.18591C4.54399 3.15469 4.38759 3.13729 4.22403 3.13729C2.71975 3.13729 1.53842 4.56084 1.94135 6.14651C2.21296 7.21401 3.19611 7.92308 4.29149 7.89428ZM4.39804 8.83641C4.39983 8.84541 4.39625 8.85861 4.37953 8.86821C3.97481 9.06935 2.41263 9.94415 2.60903 11.7885C2.61738 11.869 2.55411 11.9375 2.47471 11.9261C2.09029 11.8708 1.10117 11.6571 0.794342 10.9912C0.624217 10.6388 0.624217 10.2305 0.794342 9.87808C0.994915 9.44881 1.47843 9.15341 2.21445 9.00808C2.56247 8.92341 3.50204 8.80335 4.37715 8.81955C4.39028 8.82135 4.39685 8.83101 4.39804 8.83641Z" fill="#717375"/>
</svg>
