<svg width="32" height="32" viewBox="0 0 32 32" fill="none" xmlns="http://www.w3.org/2000/svg">
<path d="M17.8799 15.9999L23.6132 10.2799C23.8643 10.0288 24.0054 9.6883 24.0054 9.33323C24.0054 8.97817 23.8643 8.63764 23.6132 8.38657C23.3622 8.1355 23.0217 7.99445 22.6666 7.99445C22.3115 7.99445 21.971 8.1355 21.7199 8.38657L15.9999 14.1199L10.2799 8.38657C10.0288 8.1355 9.68832 7.99445 9.33325 7.99445C8.97818 7.99445 8.63766 8.1355 8.38659 8.38657C8.13551 8.63764 7.99446 8.97817 7.99446 9.33323C7.99446 9.6883 8.13551 10.0288 8.38659 10.2799L14.1199 15.9999L8.38659 21.7199C8.26161 21.8439 8.16242 21.9913 8.09473 22.1538C8.02704 22.3163 7.99219 22.4906 7.99219 22.6666C7.99219 22.8426 8.02704 23.0169 8.09473 23.1793C8.16242 23.3418 8.26161 23.4893 8.38659 23.6132C8.51054 23.7382 8.658 23.8374 8.82048 23.9051C8.98296 23.9728 9.15724 24.0076 9.33325 24.0076C9.50927 24.0076 9.68354 23.9728 9.84602 23.9051C10.0085 23.8374 10.156 23.7382 10.2799 23.6132L15.9999 17.8799L21.7199 23.6132C21.8439 23.7382 21.9913 23.8374 22.1538 23.9051C22.3163 23.9728 22.4906 24.0076 22.6666 24.0076C22.8426 24.0076 23.0169 23.9728 23.1794 23.9051C23.3418 23.8374 23.4893 23.7382 23.6132 23.6132C23.7382 23.4893 23.8374 23.3418 23.9051 23.1793C23.9728 23.0169 24.0076 22.8426 24.0076 22.6666C24.0076 22.4906 23.9728 22.3163 23.9051 22.1538C23.8374 21.9913 23.7382 21.8439 23.6132 21.7199L17.8799 15.9999Z" fill="#121619"/>
</svg>
