<svg width="16" height="16" viewBox="0 0 16 16" fill="none" xmlns="http://www.w3.org/2000/svg">
<path fill-rule="evenodd" clip-rule="evenodd" d="M1.3335 7.99943C1.3335 4.3201 4.32016 1.33276 8.00015 1.33276C11.6868 1.33276 14.6668 4.3201 14.6668 7.99943C14.6668 11.6801 11.6868 14.6661 8.00015 14.6661C4.32016 14.6661 1.3335 11.6801 1.3335 7.99943ZM7.41348 5.47276C7.41348 5.15343 7.68015 4.8861 8.00015 4.8861C8.32015 4.8861 8.58015 5.15343 8.58015 5.47276V8.41943C8.58015 8.7401 8.32015 8.99943 8.00015 8.99943C7.68015 8.99943 7.41348 8.7401 7.41348 8.41943V5.47276ZM8.00682 11.1201C7.68015 11.1201 7.42015 10.8534 7.42015 10.5334C7.42015 10.2134 7.68015 9.95343 8.00015 9.95343C8.32682 9.95343 8.58682 10.2134 8.58682 10.5334C8.58682 10.8534 8.32682 11.1201 8.00682 11.1201Z" fill="#717375"/>
</svg>
