<svg width="20" height="21" viewBox="0 0 20 21" fill="none" xmlns="http://www.w3.org/2000/svg">
<path fill-rule="evenodd" clip-rule="evenodd" d="M8.92041 3.43256C8.36175 3.43256 7.88652 3.82075 7.75312 4.34396H12.2387C12.1053 3.82075 11.6301 3.43256 11.0714 3.43256H8.92041ZM13.506 4.34395H15.1568C16.9077 4.34395 18.3334 5.78698 18.3334 7.55912C18.3334 7.55912 18.2834 8.30933 18.2667 9.35408C18.2651 9.43675 18.225 9.51775 18.1592 9.56675C17.7582 9.86292 17.3912 10.1077 17.3579 10.1245C15.9739 11.0527 14.3656 11.7059 12.6522 12.0308C12.5405 12.0527 12.4305 11.9946 12.3737 11.895C11.8935 11.0629 10.9964 10.5212 9.99592 10.5212C9.00208 10.5212 8.09663 11.057 7.60221 11.8899C7.54469 11.9878 7.4363 12.0443 7.32541 12.0232C5.62623 11.6975 4.01792 11.0452 2.64224 10.1329L1.84184 9.576C1.77514 9.53383 1.73345 9.45783 1.73345 9.3735C1.70844 8.94308 1.66675 7.55912 1.66675 7.55912C1.66675 5.78698 3.09247 4.34395 4.84334 4.34395H6.48582C6.64424 3.12033 7.66975 2.16675 8.92041 2.16675H11.0714C12.3221 2.16675 13.3476 3.12033 13.506 4.34395ZM18.0499 11.1794L18.0166 11.1963C16.3324 12.3271 14.3064 13.0782 12.1803 13.3904C11.8802 13.4326 11.58 13.2385 11.4967 12.9347C11.3132 12.2427 10.7212 11.787 10.0126 11.787H10.0042H9.98758C9.27891 11.787 8.68691 12.2427 8.5035 12.9347C8.42016 13.2385 8.11997 13.4326 7.81982 13.3904C5.69376 13.0782 3.66775 12.3271 1.98357 11.1963C1.97524 11.1879 1.89186 11.1372 1.82516 11.1794C1.75012 11.2217 1.75012 11.3229 1.75012 11.3229L1.80849 15.6267C1.80849 17.3988 3.22587 18.8334 4.97674 18.8334H15.0151C16.766 18.8334 18.1833 17.3988 18.1833 15.6267L18.2501 11.3229C18.2501 11.3229 18.2501 11.2217 18.175 11.1794C18.1333 11.1542 18.0833 11.1626 18.0499 11.1794ZM10.6212 14.7153C10.6212 15.0697 10.3461 15.3482 9.99592 15.3482C9.65408 15.3482 9.37058 15.0697 9.37058 14.7153V13.6267C9.37058 13.2807 9.65408 12.9937 9.99592 12.9937C10.3461 12.9937 10.6212 13.2807 10.6212 13.6267V14.7153Z" fill="#717375"/>
</svg>
