<svg width="32" height="32" viewBox="0 0 32 32" fill="none" xmlns="http://www.w3.org/2000/svg">
<path d="M14.975 21.625H11C9.43333 21.625 8.10417 21.0791 7.0125 19.9875C5.92083 18.8958 5.375 17.5666 5.375 16C5.375 14.4333 5.92083 13.1 7.0125 12C8.10417 10.9 9.43333 10.35 11 10.35H14.975V12.725H11C10.0833 12.725 9.30833 13.0416 8.675 13.675C8.04167 14.3083 7.725 15.0833 7.725 16C7.725 16.9166 8.04167 17.6916 8.675 18.325C9.30833 18.9583 10.0833 19.275 11 19.275H14.975V21.625ZM11.7 16.9V15.1H20.3V16.9H11.7ZM17.025 21.625V19.275H21C21.9167 19.275 22.6917 18.9583 23.325 18.325C23.9583 17.6916 24.275 16.9166 24.275 16C24.275 15.0833 23.9583 14.3083 23.325 13.675C22.6917 13.0416 21.9167 12.725 21 12.725H17.025V10.35H21C22.5667 10.35 23.9 10.9 25 12C26.1 13.1 26.65 14.4333 26.65 16C26.65 17.5666 26.1 18.8958 25 19.9875C23.9 21.0791 22.5667 21.625 21 21.625H17.025Z" fill="#121619" fill-opacity="0.54"/>
</svg>
