<svg width="20" height="21" viewBox="0 0 20 21" fill="none" xmlns="http://www.w3.org/2000/svg">
<path fill-rule="evenodd" clip-rule="evenodd" d="M2.91675 9.09825C2.91675 5.26499 6.11998 2.16675 9.99458 2.16675C13.8802 2.16675 17.0834 5.26499 17.0834 9.09825C17.0834 11.0298 16.3809 12.8231 15.2247 14.3431C13.9491 16.0197 12.3769 17.4805 10.6072 18.6271C10.2022 18.8921 9.83667 18.9121 9.39208 18.6271C7.61237 17.4805 6.04016 16.0197 4.7755 14.3431C3.6184 12.8231 2.91675 11.0298 2.91675 9.09825ZM7.66194 9.31408C7.66194 10.5982 8.70983 11.6082 9.99458 11.6082C11.2802 11.6082 12.3382 10.5982 12.3382 9.31408C12.3382 8.03991 11.2802 6.98077 9.99458 6.98077C8.70983 6.98077 7.66194 8.03991 7.66194 9.31408Z" fill="#717375"/>
</svg>
