<svg width="16" height="16" viewBox="0 0 16 16" fill="none" xmlns="http://www.w3.org/2000/svg">
<path d="M14.6668 5.47746V11.4166C14.6668 11.9692 14.4473 12.4991 14.0566 12.8898C13.6659 13.2805 13.136 13.5 12.5835 13.5H3.41683C2.8643 13.5 2.33439 13.2805 1.94369 12.8898C1.55299 12.4991 1.3335 11.9692 1.3335 11.4166V5.47746L7.7885 9.27579C7.85262 9.31361 7.92571 9.33356 8.00016 9.33356C8.07461 9.33356 8.1477 9.31361 8.21183 9.27579L14.6668 5.47746ZM12.5835 2.66663C13.0961 2.66655 13.5908 2.85546 13.9728 3.19724C14.3549 3.53902 14.5975 4.00966 14.6543 4.51913L8.00016 8.43329L1.346 4.51913C1.40279 4.00966 1.64543 3.53902 2.02749 3.19724C2.40955 2.85546 2.90421 2.66655 3.41683 2.66663H12.5835Z" fill="#595C5E"/>
</svg>
