<svg width="32" height="32" viewBox="0 0 32 32" fill="none" xmlns="http://www.w3.org/2000/svg">
<path fill-rule="evenodd" clip-rule="evenodd" d="M29.3334 15.9998C29.3334 23.3598 23.3467 29.3332 16.0001 29.3332L15.6271 29.3281C8.43931 29.1302 2.66675 23.235 2.66675 15.9998C2.66675 8.65317 8.64008 2.6665 16.0001 2.6665C23.3467 2.6665 29.3334 8.65317 29.3334 15.9998ZM13.3601 10.6665C12.9734 11.0665 12.9734 11.6932 13.3734 12.0798L17.3067 15.9998L13.3734 19.9198C12.9734 20.3065 12.9734 20.9465 13.3601 21.3332C13.7601 21.7332 14.3867 21.7332 14.7734 21.3332L19.4267 16.7065C19.6134 16.5198 19.7201 16.2665 19.7201 15.9998C19.7201 15.7332 19.6134 15.4798 19.4267 15.2932L14.7734 10.6665C14.5867 10.4665 14.3334 10.3732 14.0801 10.3732C13.8134 10.3732 13.5601 10.4665 13.3601 10.6665Z" fill="#121619" fill-opacity="0.54"/>
</svg>
