<svg width="16" height="16" viewBox="0 0 16 16" fill="none" xmlns="http://www.w3.org/2000/svg">
<path d="M12.1109 9.58652C11.6631 9.49019 11.3088 9.69812 10.9952 9.87972C10.6739 10.0668 10.0631 10.5623 9.71297 10.4355C7.92037 9.69745 6.23443 8.12845 5.5046 6.32866C5.37597 5.97106 5.86917 5.35635 6.0549 5.03133C6.23512 4.71669 6.43872 4.35909 6.34586 3.90794C6.26194 3.50252 5.17648 2.12133 4.79266 1.74364C4.53952 1.49415 4.28019 1.35693 4.01399 1.33475C3.01314 1.29179 1.89535 2.62724 1.69931 2.94672C1.20817 3.62796 1.21092 4.53443 1.70756 5.63356C2.90446 8.58585 7.4313 13.0413 10.3946 14.2831C10.9415 14.5389 11.4416 14.6671 11.8908 14.6671C12.3303 14.6671 12.7217 14.5444 13.0581 14.3012C13.3119 14.1549 14.7021 12.9817 14.6656 11.9539C14.6436 11.6919 14.5068 11.43 14.2605 11.1763C13.8856 10.7889 12.5133 9.67112 12.1109 9.58652Z" fill="#595C5E"/>
</svg>
