<svg width="20" height="20" viewBox="0 0 20 20" fill="none" xmlns="http://www.w3.org/2000/svg">
<path d="M9.99992 11.3792C10.7617 11.3792 11.3792 10.7617 11.3792 9.99992C11.3792 9.23814 10.7617 8.62061 9.99992 8.62061C9.23814 8.62061 8.62061 9.23814 8.62061 9.99992C8.62061 10.7617 9.23814 11.3792 9.99992 11.3792Z" fill="#9670FF"/>
<path fill-rule="evenodd" clip-rule="evenodd" d="M6.14113 5.08052C6.43415 5.37329 6.43436 5.84816 6.14159 6.14118C5.11875 7.16493 4.54419 8.55289 4.54419 10C4.54419 11.4472 5.11875 12.8352 6.14159 13.8589C6.43436 14.1519 6.43415 14.6268 6.14113 14.9196C5.84811 15.2123 5.37323 15.2121 5.08047 14.9191C3.7766 13.6141 3.04419 11.8448 3.04419 10C3.04419 8.15529 3.7766 6.386 5.08047 5.08099C5.37323 4.78796 5.84811 4.78776 6.14113 5.08052ZM8.09135 7.03074C8.38444 7.32344 8.38476 7.79832 8.09206 8.0914C7.5863 8.59784 7.30222 9.28432 7.30222 10C7.30222 10.7158 7.5863 11.4023 8.09206 11.9087C8.38476 12.2018 8.38444 12.6767 8.09135 12.9694C7.79826 13.2621 7.32339 13.2617 7.03069 12.9686C6.24406 12.181 5.80222 11.1133 5.80222 10C5.80222 8.88684 6.24406 7.81914 7.03069 7.03145C7.32339 6.73836 7.79826 6.73805 8.09135 7.03074Z" fill="#9670FF"/>
<path fill-rule="evenodd" clip-rule="evenodd" d="M4.19096 3.13031C4.48385 3.42321 4.48385 3.89808 4.19096 4.19097C2.65088 5.73106 1.78442 7.82238 1.78442 9.99996C1.78442 12.1775 2.65088 14.2689 4.19096 15.8089C4.48385 16.1018 4.48385 16.5767 4.19096 16.8696C3.89807 17.1625 3.42319 17.1625 3.1303 16.8696C1.30901 15.0483 0.284424 12.5755 0.284424 9.99996C0.284424 7.42442 1.30901 4.95161 3.1303 3.13031C3.42319 2.83742 3.89807 2.83742 4.19096 3.13031ZM13.8588 5.08043C14.1518 4.78766 14.6267 4.78787 14.9195 5.08089C16.2233 6.3859 16.9557 8.1552 16.9557 9.99996C16.9557 11.8447 16.2233 13.614 14.9195 14.919C14.6267 15.212 14.1518 15.2122 13.8588 14.9195C13.5658 14.6267 13.5656 14.1518 13.8583 13.8588C14.8812 12.8351 15.4558 11.4471 15.4558 9.99996C15.4558 8.55279 14.8812 7.16483 13.8583 6.14109C13.5656 5.84807 13.5658 5.37319 13.8588 5.08043ZM11.9084 7.03086C12.2013 6.73805 12.6762 6.73817 12.969 7.03115C13.7561 7.81867 14.1983 8.88653 14.1983 9.99996C14.1983 11.1134 13.7561 12.1812 12.969 12.9688C12.6762 13.2617 12.2013 13.2619 11.9084 12.969C11.6154 12.6762 11.6153 12.2014 11.9081 11.9084C12.4141 11.4021 12.6983 10.7157 12.6983 9.99996C12.6983 9.28421 12.4141 8.59776 11.9081 8.09152C11.6153 7.79855 11.6154 7.32368 11.9084 7.03086Z" fill="#9670FF"/>
<path fill-rule="evenodd" clip-rule="evenodd" d="M15.809 3.13031C16.1019 2.83742 16.5768 2.83742 16.8697 3.13031C18.691 4.95161 19.7156 7.42442 19.7156 9.99996C19.7156 12.5755 18.691 15.0483 16.8697 16.8696C16.5768 17.1625 16.1019 17.1625 15.809 16.8696C15.5161 16.5767 15.5161 16.1018 15.809 15.8089C17.3491 14.2689 18.2156 12.1775 18.2156 9.99996C18.2156 7.82238 17.3491 5.73106 15.809 4.19097C15.5161 3.89808 15.5161 3.42321 15.809 3.13031Z" fill="#9670FF"/>
</svg>
