<svg width="20" height="20" viewBox="0 0 20 20" fill="none" xmlns="http://www.w3.org/2000/svg">
<path fill-rule="evenodd" clip-rule="evenodd" d="M14.8075 6.98483H18.3334C18.3334 4.15382 16.6371 2.5 13.7631 2.5H6.23711C3.36305 2.5 1.66675 4.15383 1.66675 6.94873V13.0512C1.66675 15.8462 3.36305 17.5 6.23711 17.5H13.7631C16.6371 17.5 18.3334 15.8462 18.3334 13.0512V12.7912H14.8075C13.1711 12.7912 11.8445 11.4979 11.8445 9.9025C11.8445 8.30708 13.1711 7.01372 14.8075 7.01372V6.98483ZM14.8075 8.22701H17.7112C18.0548 8.22701 18.3334 8.49858 18.3334 8.83367V10.9425C18.3294 11.2759 18.0532 11.5452 17.7112 11.5491H14.8742C14.0457 11.56 13.3213 11.007 13.1334 10.2203C13.0393 9.73192 13.1714 9.228 13.4943 8.8435C13.8172 8.45908 14.2978 8.23339 14.8075 8.22701ZM14.9334 10.4442H15.2075C15.5593 10.4442 15.8445 10.1661 15.8445 9.82308C15.8445 9.48008 15.5593 9.202 15.2075 9.202H14.9334C14.7652 9.20008 14.6031 9.26383 14.4834 9.37917C14.3637 9.4945 14.2963 9.65175 14.2964 9.81583C14.2963 10.1601 14.5804 10.4402 14.9334 10.4442ZM5.6149 6.98483H10.3186C10.6704 6.98483 10.9557 6.70677 10.9557 6.36374C10.9557 6.02072 10.6704 5.74266 10.3186 5.74266H5.6149C5.26594 5.74263 4.98191 6.01633 4.97786 6.35652C4.97784 6.70073 5.26187 6.98087 5.6149 6.98483Z" fill="#717375"/>
</svg>
