<svg width="20" height="20" viewBox="0 0 20 20" fill="none" xmlns="http://www.w3.org/2000/svg">
<path d="M14.932 11.9335C14.7161 12.1427 14.617 12.4452 14.6661 12.7418L15.407 16.8418C15.4695 17.1893 15.3228 17.541 15.032 17.7418C14.747 17.9502 14.3678 17.9752 14.057 17.8085L10.3661 15.8835C10.2378 15.8152 10.0953 15.7785 9.94948 15.7743H9.72365C9.64531 15.786 9.56865 15.811 9.49865 15.8493L5.80699 17.7835C5.62449 17.8752 5.41782 17.9077 5.21532 17.8752C4.72199 17.7818 4.39282 17.3118 4.47366 16.816L5.21532 12.716C5.26449 12.4168 5.16532 12.1127 4.94949 11.9002L1.94032 8.98349C1.68866 8.73932 1.60116 8.37265 1.71616 8.04183C1.82782 7.71183 2.11282 7.471 2.45699 7.41683L6.59866 6.816C6.91366 6.7835 7.19032 6.59183 7.33199 6.3085L9.15698 2.56683C9.20031 2.4835 9.25615 2.40683 9.32365 2.34183L9.39865 2.2835C9.43781 2.24016 9.48281 2.20433 9.53281 2.17516L9.62365 2.14183L9.76531 2.0835H10.1161C10.4295 2.116 10.7053 2.3035 10.8495 2.5835L12.6986 6.3085C12.832 6.581 13.0911 6.77016 13.3903 6.816L17.532 7.41683C17.882 7.46683 18.1745 7.7085 18.2903 8.04183C18.3995 8.37599 18.3053 8.74265 18.0486 8.98349L14.932 11.9335Z" fill="#717375"/>
</svg>
