<svg width="24" height="24" viewBox="0 0 24 24" fill="none" xmlns="http://www.w3.org/2000/svg">
<path d="M21.4944 4.47222L19.9556 2.60556C19.7977 2.41694 19.6006 2.26503 19.378 2.16044C19.1554 2.05586 18.9126 2.0011 18.6667 2H5.33333C4.81667 2 4.35556 2.23889 4.05 2.60556L2.51111 4.47222C2.18889 4.86111 2 5.35 2 5.88889V19.7778C2 21.0056 2.99444 22 4.22222 22H19.7778C21.0056 22 22 21.0056 22 19.7778V5.88889C22 5.35 21.8111 4.86111 21.4944 4.47222ZM12 18.1111L5.88889 12H9.77778V9.77778H14.2222V12H18.1111L12 18.1111ZM4.36111 4.22222L5.26667 3.11111H18.6L19.6389 4.22222H4.36111Z" fill="#6933FF"/>
</svg>
