<svg width="16" height="17" viewBox="0 0 16 17" fill="none" xmlns="http://www.w3.org/2000/svg">
<path d="M2.66674 9.83328C2.54059 9.83371 2.4169 9.79833 2.31005 9.73126C2.20319 9.66419 2.11757 9.56818 2.06311 9.45438C2.00865 9.34058 1.9876 9.21367 2.00241 9.08838C2.01721 8.9631 2.06726 8.84458 2.14674 8.74661L8.74674 1.94661C8.79625 1.88947 8.86372 1.85085 8.93806 1.8371C9.01241 1.82335 9.08923 1.83529 9.1559 1.87095C9.22257 1.90661 9.27513 1.96388 9.30497 2.03335C9.3348 2.10283 9.34013 2.18038 9.32008 2.25328L8.04008 6.26661C8.00233 6.36763 7.98966 6.47629 8.00314 6.58328C8.01662 6.69027 8.05585 6.7924 8.11747 6.8809C8.17909 6.96939 8.26126 7.04162 8.35693 7.09139C8.45259 7.14115 8.55891 7.16696 8.66674 7.16661H13.3334C13.4596 7.16618 13.5833 7.20156 13.6901 7.26863C13.797 7.3357 13.8826 7.43171 13.937 7.54551C13.9915 7.65931 14.0125 7.78622 13.9977 7.91151C13.9829 8.03679 13.9329 8.15531 13.8534 8.25328L7.25341 15.0533C7.2039 15.1104 7.13644 15.149 7.06209 15.1628C6.98774 15.1765 6.91093 15.1646 6.84426 15.1289C6.77759 15.0933 6.72502 15.036 6.69519 14.9665C6.66535 14.8971 6.66002 14.8195 6.68008 14.7466L7.96008 10.7333C7.99782 10.6323 8.0105 10.5236 7.99702 10.4166C7.98354 10.3096 7.9443 10.2075 7.88268 10.119C7.82106 10.0305 7.73889 9.95827 7.64323 9.90851C7.54756 9.85874 7.44125 9.83293 7.33341 9.83328H2.66674Z" fill="#A0A2A3" stroke="#A0A2A3" stroke-linecap="round" stroke-linejoin="round"/>
</svg>
